<svg width="426" height="397" version="1.0" viewBox="0 0 393 343" xmlns="http://www.w3.org/2000/svg" xmlns:xlink="http://www.w3.org/1999/xlink"><text x="54.051781" y="38.502422" font-family="'DejaVu Sans'" font-size="10px" style="line-height:0%"><tspan x="54.051781" y="38.502422"/></text><g transform="translate(-3.82)"><g transform="translate(-28.5 -128)"><circle transform="matrix(1.3 0 0 1.3 202 -57.3)" cx="39.4" cy="141" r="3.56"/><rect x="286" y="121" width="27.7" height="9.22"/><circle transform="matrix(1.3 0 0 1.3 221 -57.3)" cx="39.4" cy="141" r="3.56"/><circle transform="matrix(1.3 0 0 1.3 202 -38.9)" cx="39.4" cy="141" r="3.56"/><circle transform="matrix(1.3 0 0 1.3 221 -38.9)" cx="39.4" cy="141" r="3.56"/><circle transform="matrix(1.3 0 0 1.3 239 -38.9)" cx="39.4" cy="141" r="3.56"/><rect x="304" y="140" width="27.7" height="9.22"/><circle transform="matrix(1.3 0 0 1.3 202 -20.5)" cx="39.4" cy="141" r="3.56"/><rect x="267" y="158" width="27.7" height="9.22"/><rect x="304" y="158" width="27.7" height="9.22"/><rect x="249" y="177" width="27.7" height="9.22"/><circle transform="matrix(1.3 0 0 1.3 239 -2.04)" cx="39.4" cy="141" r="3.56"/><circle transform="matrix(1.3 0 0 1.3 258 -2.04)" cx="39.4" cy="141" r="3.56"/><rect x="323" y="177" width="27.7" height="9.22"/><rect x="249" y="195" width="27.7" height="9.22"/><rect x="304" y="195" width="27.7" height="9.22"/><rect x="341" y="195" width="27.7" height="9.22"/><circle transform="matrix(1.3 0 0 1.3 239 16.4)" cx="39.4" cy="141" r="3.56"/><rect x="249" y="214" width="27.7" height="9.22"/><rect x="286" y="214" width="27.7" height="9.22"/><circle transform="matrix(1.3 0 0 1.3 276 34.8)" cx="39.4" cy="141" r="3.56"/><circle transform="matrix(1.3 0 0 1.3 295 34.8)" cx="39.4" cy="141" r="3.56"/><g transform="translate(-7.38)" font-family="'DejaVu Sans'" font-size="18px"><text x="232.19073" y="130.67398" style="line-height:0%" xml:space="preserve">U</text><text x="231.63702" y="149.10829" style="line-height:0%" xml:space="preserve">V</text><text x="226.5921" y="167.31757" style="line-height:0%" xml:space="preserve">W</text><text x="232.03253" y="185.97691" style="line-height:0%" xml:space="preserve">X</text><text x="232.77081" y="204.41122" style="line-height:0%" xml:space="preserve">Y</text><text x="232.27863" y="222.84554" style="line-height:0%" xml:space="preserve">Z</text></g></g><g transform="translate(-6.38 -128)"><circle id="c" cx="43.3" cy="126" r="4.61" stroke-width="1.3"/><rect id="a" x="57.1" y="121" width="27.7" height="9.22"/><circle cx="80.4" cy="145" r="4.61" stroke-width="1.3"/><circle cx="98.6" cy="145" r="4.61" stroke-width="1.3"/><circle cx="117" cy="145" r="4.61" stroke-width="1.3"/><rect x="38.7" y="158" width="27.7" height="9.22"/><circle cx="80.2" cy="163" r="4.61" stroke-width="1.3"/><rect x="94" y="158" width="27.7" height="9.22"/><circle cx="136" cy="163" r="4.61" stroke-width="1.3"/><rect x="38.7" y="177" width="27.7" height="9.22"/><circle cx="80.1" cy="181" r="4.61" stroke-width="1.3"/><circle cx="98.6" cy="182" r="4.61" stroke-width="1.3"/><circle cx="43.3" cy="200" r="4.61" stroke-width="1.3"/><circle cx="43.3" cy="218" r="4.61" stroke-width="1.3"/><circle cx="61.7" cy="218" r="4.61" stroke-width="1.3"/><rect x="75.6" y="214" width="27.7" height="9.22"/><circle cx="117" cy="218" r="4.61" stroke-width="1.3"/><rect x="38.7" y="232" width="27.7" height="9.22"/><rect x="75.6" y="232" width="27.7" height="9.22"/><circle cx="117" cy="237" r="4.61" stroke-width="1.3"/><circle cx="43.3" cy="255" r="4.61" stroke-width="1.3"/><circle cx="61.7" cy="255" r="4.61" stroke-width="1.3"/><circle cx="80.2" cy="255" r="4.61" stroke-width="1.3"/><circle cx="98.6" cy="255" r="4.61" stroke-width="1.3"/><circle cx="43.3" cy="274" r="4.61" stroke-width="1.3"/><circle cx="61.7" cy="274" r="4.61" stroke-width="1.3"/><circle cx="43.3" cy="292" r="4.61" stroke-width="1.3"/><rect x="57.1" y="287" width="27.7" height="9.22"/><rect x="94" y="287" width="27.7" height="9.22"/><rect x="131" y="287" width="27.7" height="9.22"/><rect x="38.7" y="306" width="27.7" height="9.22"/><circle cx="80.2" cy="310" r="4.61" stroke-width="1.3"/><rect x="94" y="306" width="27.7" height="9.22"/><circle cx="43.3" cy="329" r="4.61" stroke-width="1.3"/><rect x="57.1" y="324" width="27.7" height="9.22"/><circle cx="98.6" cy="329" r="4.61" stroke-width="1.3"/><circle cx="117" cy="329" r="4.61" stroke-width="1.3"/><rect x="38.7" y="343" width="27.7" height="9.22"/><rect x="75.6" y="343" width="27.7" height="9.22"/><rect x="38.7" y="361" width="27.7" height="9.22"/><circle cx="80.2" cy="366" r="4.61" stroke-width="1.3"/><rect x="38.7" y="380" width="27.7" height="9.22"/><rect x="75.6" y="380" width="27.7" height="9.22"/><rect x="112" y="380" width="27.7" height="9.22"/><circle cx="43.3" cy="403" r="4.61" stroke-width="1.3"/><rect x="57.1" y="398" width="27.7" height="9.22"/><rect x="94" y="398" width="27.7" height="9.22"/><circle cx="135" cy="403" r="4.61" stroke-width="1.3"/><rect x="38.7" y="416" width="27.7" height="9.22"/><rect x="75.6" y="416" width="27.7" height="9.22"/><circle cx="117" cy="421" r="4.61" stroke-width="1.3"/><rect x="131" y="416" width="27.7" height="9.22"/><circle cx="43.3" cy="439" r="4.61" stroke-width="1.3"/><rect x="57.1" y="435" width="27.7" height="9.22"/><circle cx="98.6" cy="439" r="4.61" stroke-width="1.3"/><circle cx="80.2" cy="458" r="4.61" stroke-width="1.3"/><circle cx="61.7" cy="458" r="4.61" stroke-width="1.3"/><circle cx="43.3" cy="458" r="4.61" stroke-width="1.3"/><rect x="38.7" y="472" width="27.7" height="9.22"/><g font-family="'DejaVu Sans'" font-size="18px"><text x="13.282564" y="130.67398" style="line-height:0%" xml:space="preserve">A</text><text x="13.014498" y="149.10829" style="line-height:0%" xml:space="preserve">B</text><text x="13.13315" y="167.31757" style="line-height:0%" xml:space="preserve">C</text><text x="12.15317" y="185.97691" style="line-height:0%" xml:space="preserve">D</text><text x="13.440767" y="204.41122" style="line-height:0%" xml:space="preserve">E</text><text x="13.897799" y="222.84554" style="line-height:0%" xml:space="preserve">F</text><text x="12.693696" y="241.05481" style="line-height:0%" xml:space="preserve">G</text><text x="12.66733" y="259.71414" style="line-height:0%" xml:space="preserve">H</text><text x="16.780609" y="278.14847" style="line-height:0%" xml:space="preserve">I</text><text x="18.12973" y="296.58276" style="line-height:0%" xml:space="preserve">J</text><text x="12.460787" y="315.01709" style="line-height:0%" xml:space="preserve">K</text><text x="13.585787" y="333.45139" style="line-height:0%" xml:space="preserve">L</text><text x="11.665377" y="351.88571" style="line-height:0%" xml:space="preserve">M</text><text x="12.702486" y="370.32001" style="line-height:0%" xml:space="preserve">N</text><text x="12.350924" y="388.75433" style="line-height:0%" xml:space="preserve">O</text><text x="12.350924" y="425.62296" style="line-height:0%" xml:space="preserve">Q</text><text x="13.431978" y="407.18866" style="line-height:0%" xml:space="preserve">P</text><text x="12.557467" y="444.05728" style="line-height:0%" xml:space="preserve">R</text><text x="13.629732" y="462.49158" style="line-height:0%" xml:space="preserve">S</text><text x="13.937349" y="480.9259" style="line-height:0%" xml:space="preserve">T</text></g><use transform="translate(-18.4 18.4)" width="414.772" height="500.99399" xlink:href="#a"/></g><g transform="translate(-28.5 -63.6)"><use id="ai" transform="translate(210 120)" width="414.772" height="500.99399" xlink:href="#a"/><use id="k" transform="translate(247 120)" width="414.772" height="500.99399" xlink:href="#a"/><use id="ah" width="414.772" height="500.99399" xlink:href="#k"/><use id="ag" transform="translate(284 120)" width="414.772" height="500.99399" xlink:href="#a"/><use id="af" transform="translate(321 120)" width="414.772" height="500.99399" xlink:href="#a"/><use transform="translate(210 120)" width="414.772" height="500.99399" xlink:href="#c"/><use transform="translate(210 138)" width="414.772" height="500.99399" xlink:href="#c"/><use transform="translate(229 138)" width="414.772" height="500.99399" xlink:href="#c"/><use id="ae" transform="translate(229 138)" width="414.772" height="500.99399" xlink:href="#a"/><use transform="translate(265 138)" width="414.772" height="500.99399" xlink:href="#a"/><use transform="translate(302 138)" width="414.772" height="500.99399" xlink:href="#a"/><use id="b" transform="translate(210 157)" width="414.772" height="500.99399" xlink:href="#c"/><use id="f" transform="translate(18.4)" width="414.772" height="500.99399" xlink:href="#b"/><use id="j" transform="translate(18.4)" width="414.772" height="500.99399" xlink:href="#f"/><use id="e" transform="translate(18.4 18.4)" width="414.772" height="500.99399" xlink:href="#ae"/><use id="ad" transform="translate(36.9)" width="414.772" height="500.99399" xlink:href="#e"/><use id="d" transform="translate(2.32e-7 18.4)" width="414.772" height="500.99399" xlink:href="#b"/><use id="i" transform="translate(18.4)" width="414.772" height="500.99399" xlink:href="#d"/><use id="h" transform="translate(18.4)" width="414.772" height="500.99399" xlink:href="#i"/><use id="ac" transform="translate(18.4)" width="414.772" height="500.99399" xlink:href="#h"/><use id="ab" transform="translate(18.4 18.4)" width="414.772" height="500.99399" xlink:href="#e"/><use id="aa" transform="translate(-2.32e-7 18.4)" width="414.772" height="500.99399" xlink:href="#d"/><use id="z" transform="translate(18.4)" width="414.772" height="500.99399" xlink:href="#aa"/><use id="y" transform="translate(18.4)" width="414.772" height="500.99399" xlink:href="#z"/><use id="x" transform="translate(18.4)" width="414.772" height="500.99399" xlink:href="#y"/><use transform="translate(18.4)" width="414.772" height="500.99399" xlink:href="#x"/><use transform="translate(36.9 36.9)" width="414.772" height="500.99399" xlink:href="#d"/><use transform="translate(36.9 36.9)" width="414.772" height="500.99399" xlink:href="#i"/><use transform="translate(36.9 36.9)" width="414.772" height="500.99399" xlink:href="#h"/><use transform="translate(36.9 36.9)" width="414.772" height="500.99399" xlink:href="#ac"/><use transform="translate(-73.7 36.9)" width="414.772" height="500.99399" xlink:href="#ab"/><use width="414.772" height="500.99399" xlink:href="#b"/><use width="414.772" height="500.99399" xlink:href="#f"/><use width="414.772" height="500.99399" xlink:href="#j"/><use id="w" width="414.772" height="500.99399" xlink:href="#e"/><use id="v" width="414.772" height="500.99399" xlink:href="#ad"/><use id="u" transform="translate(73.7 73.7)" width="414.772" height="500.99399" xlink:href="#b"/><use id="t" transform="translate(73.7 73.7)" width="414.772" height="500.99399" xlink:href="#f"/><use transform="translate(73.7 73.7)" width="414.772" height="500.99399" xlink:href="#j"/><use id="s" transform="translate(-55.3 73.7)" width="414.772" height="500.99399" xlink:href="#w"/><use id="r" transform="translate(-55.3 73.7)" width="414.772" height="500.99399" xlink:href="#v"/><use transform="translate(36.9 18.4)" width="414.772" height="500.99399" xlink:href="#u"/><use id="q" transform="translate(36.9 18.4)" width="414.772" height="500.99399" xlink:href="#t"/><use id="p" transform="translate(36.9 18.4)" width="414.772" height="500.99399" xlink:href="#s"/><use transform="translate(36.9 18.4)" width="414.772" height="500.99399" xlink:href="#r"/><use transform="translate(-36.9)" width="414.772" height="500.99399" xlink:href="#p"/><use id="o" transform="translate(-18.4 147)" width="414.772" height="500.99399" xlink:href="#ai"/><use id="n" transform="translate(-18.4 147)" width="414.772" height="500.99399" xlink:href="#k"/><use id="m" transform="translate(-18.4 147)" width="414.772" height="500.99399" xlink:href="#ah"/><use id="l" transform="translate(-18.4 147)" width="414.772" height="500.99399" xlink:href="#ag"/><use id="g" transform="translate(-18.4 147)" width="414.772" height="500.99399" xlink:href="#af"/><use transform="translate(-111 18.4)" width="414.772" height="500.99399" xlink:href="#g"/><use transform="translate(18.4 18.4)" width="414.772" height="500.99399" xlink:href="#q"/><use transform="translate(36.9 18.4)" width="414.772" height="500.99399" xlink:href="#o"/><use transform="translate(36.9 18.4)" width="414.772" height="500.99399" xlink:href="#n"/><use transform="translate(36.9 18.4)" width="414.772" height="500.99399" xlink:href="#m"/><use transform="translate(36.9 18.4)" width="414.772" height="500.99399" xlink:href="#l"/><use transform="translate(36.9 18.4)" width="414.772" height="500.99399" xlink:href="#g"/><g transform="translate(-5.53)" font-family="'DejaVu Sans'" font-size="18px"><text x="231.5923" y="250.49699" style="line-height:0%" xml:space="preserve">1</text><text x="231.73293" y="268.9313" style="line-height:0%" xml:space="preserve">2</text><text x="231.37257" y="287.14056" style="line-height:0%" xml:space="preserve">3</text><text x="230.94191" y="305.79993" style="line-height:0%" xml:space="preserve">4</text><text x="231.50441" y="324.23422" style="line-height:0%" xml:space="preserve">5</text><text x="231.06496" y="342.66855" style="line-height:0%" xml:space="preserve">6</text><text x="231.46925" y="360.87781" style="line-height:0%" xml:space="preserve">7</text><text x="231.16164" y="379.53714" style="line-height:0%" xml:space="preserve">8</text><text x="231.19679" y="397.97147" style="line-height:0%" xml:space="preserve">9</text><text x="231.12648" y="416.40576" style="line-height:0%" xml:space="preserve">0</text></g></g></g></svg>
